<svg width="1080" height="1080" version="1.1" viewBox="0 0 1080 1080" xmlns="http://www.w3.org/2000/svg" xmlns:xlink="http://www.w3.org/1999/xlink">
 <desc>Inkscape source optimised for assets used in hyprland module</desc>
 <defs>
  <linearGradient id="b">
   <stop stop-color="#1e1e2e" offset="0"/>
  </linearGradient>
  <linearGradient id="c">
   <stop stop-color="#11111b" offset="0"/>
  </linearGradient>
  <radialGradient id="d" cx="1720" cy="800" r="800" gradientTransform="matrix(.675 0 0 .675 -621 -3.4459)" gradientUnits="userSpaceOnUse">
   <stop stop-color="#791aea" offset="0"/>
   <stop stop-color="#11111b" offset=".24"/>
   <stop stop-color="#11111b" offset=".3"/>
   <stop stop-color="#791aea" offset=".4"/>
   <stop stop-opacity="0" offset="1"/>
  </radialGradient>
  <filter id="a" x="-.039434" y="-.040833" width="1.0789" height="1.0817" color-interpolation-filters="sRGB">
   <feFlood flood-color="rgb(17,17,27)" in="SourceGraphic" result="flood"/>
   <feGaussianBlur in="SourceGraphic" result="blur" stdDeviation="20"/>
   <feOffset dx="0" dy="0" in="blur" result="offset"/>
   <feComposite in="flood" in2="offset" operator="in" result="comp1"/>
   <feComposite in="SourceGraphic" in2="comp1" result="comp2"/>
  </filter>
  <linearGradient id="m" x2="1080" y1="1170" y2="1170" gradientTransform="scale(1 .46154)" gradientUnits="userSpaceOnUse" xlink:href="#c"/>
  <linearGradient id="l" x1="52.766" x2="1406.2" y1="799.25" y2="799.25" gradientUnits="userSpaceOnUse" xlink:href="#b"/>
  <linearGradient id="k" x1="193.4" x2="1547.3" y1="800" y2="800" gradientUnits="userSpaceOnUse" xlink:href="#b"/>
  <radialGradient id="g" cx="870.33" cy="800" r="676.93" gradientTransform="matrix(1 0 0 .97349 0 21.212)" gradientUnits="userSpaceOnUse">
   <stop offset="0"/>
   <stop stop-color="#cba6f7" offset=".3"/>
   <stop stop-color="#791aea" offset="1"/>
  </radialGradient>
  <radialGradient id="f" cx="729.46" cy="799.25" r="676.7" gradientTransform="matrix(1 0 0 .97262 0 21.887)" gradientUnits="userSpaceOnUse">
   <stop offset="0"/>
   <stop stop-color="#791aea" offset=".3"/>
   <stop stop-color="#cba6f7" offset="1"/>
  </radialGradient>
  <linearGradient id="j" x2="1080" y1="540" y2="540" gradientUnits="userSpaceOnUse" xlink:href="#c"/>
  <linearGradient id="i" x1="467.92" x2="612.08" y1="540" y2="540" gradientTransform="matrix(1.0405 0 0 1.0405 -21.845 -21.845)" gradientUnits="userSpaceOnUse">
   <stop stop-color="#791aea" offset="0"/>
  </linearGradient>
  <linearGradient id="h" x1="467.92" x2="612.08" y1="540" y2="540" gradientTransform="matrix(1.0405 0 0 1.0405 -21.845 -21.845)" gradientUnits="userSpaceOnUse">
   <stop stop-color="#1e1e2e" offset="0"/>
  </linearGradient>
 </defs>
 <rect width="1080" height="1080" fill="url(#m)" stroke="url(#j)" stroke-width=".675"/>
 <circle cx="540" cy="540" r="540" fill="url(#d)" stroke-width=".675"/>
 <path transform="matrix(.6 0 0 .6 60 60)" d="m650.74 571-339.83 592.39-79.335-135.37 91.575-158.66-181.88-0.4725-38.768-67.646 39.589-69.188 258.9 0.82125 93.038-161.46zm26.078 473.56 679.6 0.034-76.804 136.84-182.31-0.5063 90.529 158.79-38.812 67.612-79.312 0.09-128.76-226.09-185.43-0.3825zm395.55-259.58-339.77-592.42 156.15-1.4738 90.709 159.16 91.35-158.31 77.591 0.0225 39.735 69.109-130.16 225.27 92.396 161.84z" clip-rule="evenodd" fill="url(#l)" filter="url(#a)" stroke="url(#f)" stroke-linejoin="bevel" stroke-width="3.3333" style="paint-order:normal"/>
 <path transform="matrix(.6 0 0 .6 60 60)" d="m528.1 815.03 339.77 592.42-156.15 1.4737-90.709-159.16-91.35 158.31-77.591-0.022-39.735-69.109 130.16-225.27-92.396-161.84zm394.65-261.08-679.6-0.0337 76.815-136.83 182.3 0.50625-90.529-158.79 38.812-67.612 79.324-0.1125 128.74 226.09 185.44 0.3825 78.705 136.4zm26.516 474.93 339.83-592.4 79.335 135.38-91.586 158.65 181.89 0.48375 38.768 67.646-39.589 69.188-258.9-0.82125-93.038 161.46z" clip-rule="evenodd" fill="url(#k)" filter="url(#a)" stroke="url(#g)" stroke-linejoin="bevel" stroke-width="3.3333" style="paint-order:normal"/>
 <circle cx="540" cy="540" r="74.376" fill="url(#h)" stroke="url(#i)"/>
</svg>
